<?xml version="1.0" encoding="UTF-8"?>
<X3D profile="Interchange" version="3.3">
  <Scene>
    <Shape>
      <Appearance><Material diffuseColor="0.9 0.6 0.1"/></Appearance>
      <IndexedFaceSet solid="true" coordIndex="0 1 2 -1 0 2 3 -1 4 5 6 -1 4 6 7 -1 8 9 10 -1 8 10 11 -1 12 13 14 -1 12 14 15 -1 16 17 18 -1 16 18 19 -1 20 21 22 -1 20 22 23 -1">
        <Coordinate point="0 0.03 0, 0.01 0.03 0, 0.01 0.03 -0.02, 0 0.03 -0.02, 0 0 -0.02, 0.01 0 -0.02, 0.01 0 0, 0 0 0, 0 0 0, 0.01 0 0, 0.01 0.03 0, 0 0.03 0, 0.01 0 -0.02, 0 0 -0.02, 0 0.03 -0.02, 0.01 0.03 -0.02, 0.01 0 0, 0.01 0 -0.02, 0.01 0.03 -0.02, 0.01 0.03 0, 0 0 -0.02, 0 0 0, 0 0.03 0, 0 0.03 -0.02"/>
      </IndexedFaceSet>
    </Shape>
  </Scene>
</X3D>
