                                                                        S0000001
,,31HOpen CASCADE IGES processor 8.0,13HFilename.iges,                  G0000001
16HOpen CASCADE 8.0,31HOpen CASCADE IGES processor 8.0,32,308,15,308,15,G0000002
,1.,2,2HMM,1,0.01,15H20261006.082152,1E-07,52.5,5Hcharl,,11,0,          G0000003
15H20261006.082152,;                                                    G0000004
     402       1       0       0       0       0       0       000000000D0000001
     402       0       0       1       1                assembly        D0000002
     402       2       0       0       0       0       0       000020000D0000003
     402       0       0       1       1                =>[0:1:1        D0000004
     144       3       0       0       0       0       0       000020000D0000005
     144       0    -345       1       0                               0D0000006
     108       4       0       0       0       0       0       000010000D0000007
     108       0       0       1       0                               0D0000008
     142       5       0       0       0       0       0       000010500D0000009
     142       0       0       1       0                               0D0000010
     102       6       0       0       0       0       0       000010000D0000011
     102       0       0       1       0                               0D0000012
     110       7       0       0       0       0       0       000010000D0000013
     110       0       0       1       0                               0D0000014
     110       8       0       0       0       0       0       000010000D0000015
     110       0       0       1       0                               0D0000016
     110       9       0       0       0       0       0       000010000D0000017
     110       0       0       1       0                               0D0000018
     110      10       0       0       0       0       0       000010000D0000019
     110       0       0       1       0                               0D0000020
     144      11       0       0       0       0       0       000020000D0000021
     144       0    -345       1       0                               0D0000022
     108      12       0       0       0       0       0       000010000D0000023
     108       0       0       1       0                               0D0000024
     142      13       0       0       0       0       0       000010500D0000025
     142       0       0       1       0                               0D0000026
     102      14       0       0       0       0       0       000010000D0000027
     102       0       0       1       0                               0D0000028
     110      15       0       0       0       0       0       000010000D0000029
     110       0       0       1       0                               0D0000030
     110      16       0       0       0       0       0       000010000D0000031
     110       0       0       1       0                               0D0000032
     110      17       0       0       0       0       0       000010000D0000033
     110       0       0       1       0                               0D0000034
     110      18       0       0       0       0       0       000010000D0000035
     110       0       0       1       0                               0D0000036
     144      19       0       0       0       0       0       000020000D0000037
     144       0    -345       1       0                               0D0000038
     108      20       0       0       0       0       0       000010000D0000039
     108       0       0       1       0                               0D0000040
     142      21       0       0       0       0       0       000010500D0000041
     142       0       0       1       0                               0D0000042
     102      22       0       0       0       0       0       000010000D0000043
     102       0       0       1       0                               0D0000044
     110      23       0       0       0       0       0       000010000D0000045
     110       0       0       1       0                               0D0000046
     110      24       0       0       0       0       0       000010000D0000047
     110       0       0       1       0                               0D0000048
     110      25       0       0       0       0       0       000010000D0000049
     110       0       0       1       0                               0D0000050
     110      26       0       0       0       0       0       000010000D0000051
     110       0       0       1       0                               0D0000052
     144      27       0       0       0       0       0       000020000D0000053
     144       0    -345       1       0                               0D0000054
     108      28       0       0       0       0       0       000010000D0000055
     108       0       0       1       0                               0D0000056
     142      29       0       0       0       0       0       000010500D0000057
     142       0       0       1       0                               0D0000058
     102      30       0       0       0       0       0       000010000D0000059
     102       0       0       1       0                               0D0000060
     110      31       0       0       0       0       0       000010000D0000061
     110       0       0       1       0                               0D0000062
     110      32       0       0       0       0       0       000010000D0000063
     110       0       0       1       0                               0D0000064
     110      33       0       0       0       0       0       000010000D0000065
     110       0       0       1       0                               0D0000066
     110      34       0       0       0       0       0       000010000D0000067
     110       0       0       1       0                               0D0000068
     144      35       0       0       0       0       0       000020000D0000069
     144       0    -345       1       0                               0D0000070
     108      36       0       0       0       0       0       000010000D0000071
     108       0       0       1       0                               0D0000072
     142      37       0       0       0       0       0       000010500D0000073
     142       0       0       1       0                               0D0000074
     102      38       0       0       0       0       0       000010000D0000075
     102       0       0       1       0                               0D0000076
     110      39       0       0       0       0       0       000010000D0000077
     110       0       0       1       0                               0D0000078
     110      40       0       0       0       0       0       000010000D0000079
     110       0       0       1       0                               0D0000080
     110      41       0       0       0       0       0       000010000D0000081
     110       0       0       1       0                               0D0000082
     110      42       0       0       0       0       0       000010000D0000083
     110       0       0       1       0                               0D0000084
     144      43       0       0       0       0       0       000020000D0000085
     144       0    -347       1       0                               0D0000086
     108      44       0       0       0       0       0       000010000D0000087
     108       0       0       1       0                               0D0000088
     142      45       0       0       0       0       0       000010500D0000089
     142       0       0       1       0                               0D0000090
     102      46       0       0       0       0       0       000010000D0000091
     102       0       0       1       0                               0D0000092
     110      47       0       0       0       0       0       000010000D0000093
     110       0       0       1       0                               0D0000094
     110      48       0       0       0       0       0       000010000D0000095
     110       0       0       1       0                               0D0000096
     110      49       0       0       0       0       0       000010000D0000097
     110       0       0       1       0                               0D0000098
     110      50       0       0       0       0       0       000010000D0000099
     110       0       0       1       0                               0D0000100
     402      51       0       0       0       0       0       000020000D0000101
     402       0       0       1       1                =>[0:1:1        D0000102
     144      52       0       0       0       0       0       000020000D0000103
     144       0    -349       1       0                               0D0000104
     120      53       0       0       0       0     107       000010000D0000105
     120       0       0       1       0                               0D0000106
     124      54       0       0       0       0       0       000000000D0000107
     124       0       0       1       0                               0D0000108
     110      55       0       0       0       0       0       000010000D0000109
     110       0       0       1       0                               0D0000110
     110      56       0       0       0       0       0       000010000D0000111
     110       0       0       1       0                               0D0000112
     142      57       0       0       0       0       0       000010500D0000113
     142       0       0       1       0                               0D0000114
     102      58       0       0       0       0       0       000010000D0000115
     102       0       0       1       0                               0D0000116
     110      59       0       0       0       0       0       000010000D0000117
     110       0       0       1       0                               0D0000118
     110      60       0       0       0       0       0       000010000D0000119
     110       0       0       1       0                               0D0000120
     110      61       0       0       0       0       0       000010000D0000121
     110       0       0       1       0                               0D0000122
     110      62       0       0       0       0       0       000010000D0000123
     110       0       0       1       0                               0D0000124
     102      63       0       0       0       0       0       000010000D0000125
     102       0       0       1       0                               0D0000126
     100      64       0       0       0       0     129       000010000D0000127
     100       0       0       1       0                               0D0000128
     124      65       0       0       0       0       0       000000000D0000129
     124       0       0       1       0                               0D0000130
     110      66       0       0       0       0       0       000010000D0000131
     110       0       0       1       0                               0D0000132
     100      67       0       0       0       0     135       000010000D0000133
     100       0       0       1       0                               0D0000134
     124      68       0       0       0       0       0       000000000D0000135
     124       0       0       1       0                               0D0000136
     110      69       0       0       0       0       0       000010000D0000137
     110       0       0       1       0                               0D0000138
     144      70       0       0       0       0       0       000020000D0000139
     144       0    -349       1       0                               0D0000140
     108      71       0       0       0       0       0       000010000D0000141
     108       0       0       1       0                               0D0000142
     142      72       0       0       0       0       0       000010500D0000143
     142       0       0       1       0                               0D0000144
     100      73       0       0       0       0     147       000010000D0000145
     100       0       0       1       0                               0D0000146
     124      74       0       0       0       0       0       000000000D0000147
     124       0       0       1       0                               0D0000148
     144      75       0       0       0       0       0       000020000D0000149
     144       0    -349       1       0                               0D0000150
     108      76       0       0       0       0       0       000010000D0000151
     108       0       0       1       0                               0D0000152
     142      77       0       0       0       0       0       000010500D0000153
     142       0       0       1       0                               0D0000154
     100      78       0       0       0       0     157       000010000D0000155
     100       0       0       1       0                               0D0000156
     124      79       0       0       0       0       0       000000000D0000157
     124       0       0       1       0                               0D0000158
     402      80       0       0       0       0       0       000020000D0000159
     402       0       0       1       1                =>[0:1:1        D0000160
     144      81       0       0       0       0       0       000020000D0000161
     144       0    -349       1       0                               0D0000162
     120      82       0       0       0       0     165       000010000D0000163
     120       0       0       1       0                               0D0000164
     124      83       0       0       0       0       0       000000000D0000165
     124       0       0       2       0                               0D0000166
     110      85       0       0       0       0       0       000010000D0000167
     110       0       0       1       0                               0D0000168
     110      86       0       0       0       0       0       000010000D0000169
     110       0       0       1       0                               0D0000170
     142      87       0       0       0       0       0       000010500D0000171
     142       0       0       1       0                               0D0000172
     102      88       0       0       0       0       0       000010000D0000173
     102       0       0       1       0                               0D0000174
     110      89       0       0       0       0       0       000010000D0000175
     110       0       0       1       0                               0D0000176
     110      90       0       0       0       0       0       000010000D0000177
     110       0       0       1       0                               0D0000178
     110      91       0       0       0       0       0       000010000D0000179
     110       0       0       1       0                               0D0000180
     110      92       0       0       0       0       0       000010000D0000181
     110       0       0       1       0                               0D0000182
     102      93       0       0       0       0       0       000010000D0000183
     102       0       0       1       0                               0D0000184
     100      94       0       0       0       0     187       000010000D0000185
     100       0       0       1       0                               0D0000186
     124      95       0       0       0       0       0       000000000D0000187
     124       0       0       2       0                               0D0000188
     110      97       0       0       0       0       0       000010000D0000189
     110       0       0       1       0                               0D0000190
     100      98       0       0       0       0     193       000010000D0000191
     100       0       0       1       0                               0D0000192
     124      99       0       0       0       0       0       000000000D0000193
     124       0       0       2       0                               0D0000194
     110     101       0       0       0       0       0       000010000D0000195
     110       0       0       1       0                               0D0000196
     144     102       0       0       0       0       0       000020000D0000197
     144       0    -349       1       0                               0D0000198
     108     103       0       0       0       0       0       000010000D0000199
     108       0       0       1       0                               0D0000200
     142     104       0       0       0       0       0       000010500D0000201
     142       0       0       1       0                               0D0000202
     100     105       0       0       0       0     205       000010000D0000203
     100       0       0       1       0                               0D0000204
     124     106       0       0       0       0       0       000000000D0000205
     124       0       0       2       0                               0D0000206
     144     108       0       0       0       0       0       000020000D0000207
     144       0    -349       1       0                               0D0000208
     108     109       0       0       0       0       0       000010000D0000209
     108       0       0       1       0                               0D0000210
     142     110       0       0       0       0       0       000010500D0000211
     142       0       0       1       0                               0D0000212
     100     111       0       0       0       0     215       000010000D0000213
     100       0       0       1       0                               0D0000214
     124     112       0       0       0       0       0       000000000D0000215
     124       0       0       2       0                               0D0000216
     144     114       0       0       0       0       0       000020000D0000217
     144       0    -351       1       0                =>[0:1:1        D0000218
     120     115       0       0       0       0     221       000010000D0000219
     120       0       0       1       0                               0D0000220
     124     116       0       0       0       0       0       000000000D0000221
     124       0       0       1       0                               0D0000222
     110     117       0       0       0       0       0       000010000D0000223
     110       0       0       1       0                               0D0000224
     100     118       0       0       0       0     227       000010000D0000225
     100       0       0       1       0                               0D0000226
     124     119       0       0       0       0       0       000000000D0000227
     124       0       0       1       0                               0D0000228
     142     120       0       0       0       0       0       000010500D0000229
     142       0       0       1       0                               0D0000230
     102     121       0       0       0       0       0       000010000D0000231
     102       0       0       1       0                               0D0000232
     110     122       0       0       0       0       0       000010000D0000233
     110       0       0       1       0                               0D0000234
     110     123       0       0       0       0       0       000010000D0000235
     110       0       0       2       0                               0D0000236
     102     125       0       0       0       0       0       000010000D0000237
     102       0       0       1       0                               0D0000238
     100     126       0       0       0       0     241       000010000D0000239
     100       0       0       1       0                               0D0000240
     124     127       0       0       0       0       0       000000000D0000241
     124       0       0       2       0                               0D0000242
     100     129       0       0       0       0     245       000010000D0000243
     100       0       0       1       0                               0D0000244
     124     130       0       0       0       0       0       000000000D0000245
     124       0       0       2       0                               0D0000246
     402     132       0       0       0       0       0       000020000D0000247
     402       0       0       1       1                =>[0:1:1        D0000248
     144     133       0       0       0       0       0       000020000D0000249
     144       0    -353       1       0                               0D0000250
     108     134       0       0       0       0       0       000010000D0000251
     108       0       0       1       0                               0D0000252
     142     135       0       0       0       0       0       000010500D0000253
     142       0       0       1       0                               0D0000254
     102     136       0       0       0       0       0       000010000D0000255
     102       0       0       1       0                               0D0000256
     110     137       0       0       0       0       0       000010000D0000257
     110       0       0       1       0                               0D0000258
     110     138       0       0       0       0       0       000010000D0000259
     110       0       0       1       0                               0D0000260
     110     139       0       0       0       0       0       000010000D0000261
     110       0       0       1       0                               0D0000262
     110     140       0       0       0       0       0       000010000D0000263
     110       0       0       1       0                               0D0000264
     144     141       0       0       0       0       0       000020000D0000265
     144       0    -353       1       0                               0D0000266
     108     142       0       0       0       0       0       000010000D0000267
     108       0       0       1       0                               0D0000268
     142     143       0       0       0       0       0       000010500D0000269
     142       0       0       1       0                               0D0000270
     102     144       0       0       0       0       0       000010000D0000271
     102       0       0       1       0                               0D0000272
     110     145       0       0       0       0       0       000010000D0000273
     110       0       0       1       0                               0D0000274
     110     146       0       0       0       0       0       000010000D0000275
     110       0       0       1       0                               0D0000276
     110     147       0       0       0       0       0       000010000D0000277
     110       0       0       1       0                               0D0000278
     110     148       0       0       0       0       0       000010000D0000279
     110       0       0       1       0                               0D0000280
     144     149       0       0       0       0       0       000020000D0000281
     144       0    -353       1       0                               0D0000282
     108     150       0       0       0       0       0       000010000D0000283
     108       0       0       1       0                               0D0000284
     142     151       0       0       0       0       0       000010500D0000285
     142       0       0       1       0                               0D0000286
     102     152       0       0       0       0       0       000010000D0000287
     102       0       0       1       0                               0D0000288
     110     153       0       0       0       0       0       000010000D0000289
     110       0       0       1       0                               0D0000290
     110     154       0       0       0       0       0       000010000D0000291
     110       0       0       1       0                               0D0000292
     110     155       0       0       0       0       0       000010000D0000293
     110       0       0       1       0                               0D0000294
     110     156       0       0       0       0       0       000010000D0000295
     110       0       0       1       0                               0D0000296
     144     157       0       0       0       0       0       000020000D0000297
     144       0    -353       1       0                               0D0000298
     108     158       0       0       0       0       0       000010000D0000299
     108       0       0       1       0                               0D0000300
     142     159       0       0       0       0       0       000010500D0000301
     142       0       0       1       0                               0D0000302
     102     160       0       0       0       0       0       000010000D0000303
     102       0       0       1       0                               0D0000304
     110     161       0       0       0       0       0       000010000D0000305
     110       0       0       1       0                               0D0000306
     110     162       0       0       0       0       0       000010000D0000307
     110       0       0       1       0                               0D0000308
     110     163       0       0       0       0       0       000010000D0000309
     110       0       0       1       0                               0D0000310
     110     164       0       0       0       0       0       000010000D0000311
     110       0       0       1       0                               0D0000312
     144     165       0       0       0       0       0       000020000D0000313
     144       0    -353       1       0                               0D0000314
     108     166       0       0       0       0       0       000010000D0000315
     108       0       0       1       0                               0D0000316
     142     167       0       0       0       0       0       000010500D0000317
     142       0       0       1       0                               0D0000318
     102     168       0       0       0       0       0       000010000D0000319
     102       0       0       1       0                               0D0000320
     110     169       0       0       0       0       0       000010000D0000321
     110       0       0       1       0                               0D0000322
     110     170       0       0       0       0       0       000010000D0000323
     110       0       0       1       0                               0D0000324
     110     171       0       0       0       0       0       000010000D0000325
     110       0       0       1       0                               0D0000326
     110     172       0       0       0       0       0       000010000D0000327
     110       0       0       1       0                               0D0000328
     144     173       0       0       0       0       0       000020000D0000329
     144       0    -353       1       0                               0D0000330
     108     174       0       0       0       0       0       000010000D0000331
     108       0       0       1       0                               0D0000332
     142     175       0       0       0       0       0       000010500D0000333
     142       0       0       1       0                               0D0000334
     102     176       0       0       0       0       0       000010000D0000335
     102       0       0       1       0                               0D0000336
     110     177       0       0       0       0       0       000010000D0000337
     110       0       0       1       0                               0D0000338
     110     178       0       0       0       0       0       000010000D0000339
     110       0       0       1       0                               0D0000340
     110     179       0       0       0       0       0       000010000D0000341
     110       0       0       1       0                               0D0000342
     110     180       0       0       0       0       0       000010000D0000343
     110       0       0       1       0                               0D0000344
     314     181       0       0       0       0       0       000000200D0000345
     314       0       0       1       0                               0D0000346
     314     182       0       0       0       0       0       000000200D0000347
     314       0       0       1       0                               0D0000348
     314     183       0       0       0       0       0       000000200D0000349
     314       0       0       1       0                               0D0000350
     314     184       0       0       0       0       0       000000200D0000351
     314       0       0       1       0                               0D0000352
     314     185       0       0       0       0       0       000000200D0000353
     314       0       0       1       0                               0D0000354
     406     186       0       0       0       0       0       000000000D0000355
     406       0       0       1      15                               0D0000356
     406     187       0       0       0       0       0       000000000D0000357
     406       0       0       1      15                               0D0000358
     406     188       0       0       0       0       0       000000000D0000359
     406       0       0       1      15                               0D0000360
     406     189       0       0       0       0       0       000000000D0000361
     406       0       0       1      15                               0D0000362
     406     190       0       0       0       0       0       000000000D0000363
     406       0       0       1      15                               0D0000364
     406     191       0       0       0       0       0       000000000D0000365
     406       0       0       1      15                               0D0000366
402,5,3,101,159,217,247,0,1,365;                                 0000001P0000001
402,6,5,21,37,53,69,85,0,1,359;                                  0000003P0000002
144,7,1,0,9;                                                     0000005P0000003
108,-1.,-0.,0.,0.,0,0.,0.,0.,0.;                                 0000007P0000004
142,0,7,0,11,2;                                                  0000009P0000005
102,4,13,15,17,19;                                               0000011P0000006
110,0.,20.,0.,0.,0.,0.;                                          0000013P0000007
110,0.,0.,0.,0.,0.,30.;                                          0000015P0000008
110,0.,0.,30.,0.,20.,30.;                                        0000017P0000009
110,0.,20.,30.,0.,20.,0.;                                        0000019P0000010
144,23,1,0,25;                                                   0000021P0000011
108,1.,0.,-0.,10.,0,10.,0.,0.,0.;                                0000023P0000012
142,0,23,0,27,2;                                                 0000025P0000013
102,4,29,31,33,35;                                               0000027P0000014
110,10.,0.,30.,10.,0.,0.;                                        0000029P0000015
110,10.,0.,0.,10.,20.,0.;                                        0000031P0000016
110,10.,20.,0.,10.,20.,30.;                                      0000033P0000017
110,10.,20.,30.,10.,0.,30.;                                      0000035P0000018
144,39,1,0,41;                                                   0000037P0000019
108,0.,-1.,-0.,0.,0,0.,0.,0.,0.;                                 0000039P0000020
142,0,39,0,43,2;                                                 0000041P0000021
102,4,45,47,49,51;                                               0000043P0000022
110,0.,0.,30.,0.,0.,0.;                                          0000045P0000023
110,0.,0.,0.,10.,0.,0.;                                          0000047P0000024
110,10.,0.,0.,10.,0.,30.;                                        0000049P0000025
110,10.,0.,30.,0.,0.,30.;                                        0000051P0000026
144,55,1,0,57;                                                   0000053P0000027
108,-0.,1.,0.,20.,0,0.,20.,0.,0.;                                0000055P0000028
142,0,55,0,59,2;                                                 0000057P0000029
102,4,61,63,65,67;                                               0000059P0000030
110,10.,20.,0.,0.,20.,0.;                                        0000061P0000031
110,0.,20.,0.,0.,20.,30.;                                        0000063P0000032
110,0.,20.,30.,10.,20.,30.;                                      0000065P0000033
110,10.,20.,30.,10.,20.,0.;                                      0000067P0000034
144,71,1,0,73;                                                   0000069P0000035
108,-0.,-0.,-1.,-0.,0,0.,0.,0.,0.;                               0000071P0000036
142,0,71,0,75,2;                                                 0000073P0000037
102,4,77,79,81,83;                                               0000075P0000038
110,10.,0.,0.,0.,0.,0.;                                          0000077P0000039
110,0.,0.,0.,0.,20.,0.;                                          0000079P0000040
110,0.,20.,0.,10.,20.,0.;                                        0000081P0000041
110,10.,20.,0.,10.,0.,0.;                                        0000083P0000042
144,87,1,0,89;                                                   0000085P0000043
108,0.,0.,1.,30.,0,0.,0.,30.,0.;                                 0000087P0000044
142,0,87,0,91,2;                                                 0000089P0000045
102,4,93,95,97,99;                                               0000091P0000046
110,0.,20.,30.,0.,0.,30.;                                        0000093P0000047
110,0.,0.,30.,10.,0.,30.;                                        0000095P0000048
110,10.,0.,30.,10.,20.,30.;                                      0000097P0000049
110,10.,20.,30.,0.,20.,30.;                                      0000099P0000050
402,3,103,139,149,0,1,355;                                       0000101P0000051
144,105,1,0,113;                                                 0000103P0000052
120,109,111,0.,6.283185307;                                      0000105P0000053
124,1.,0.,0.,25.,0.,1.,0.,10.,0.,0.,1.,0.;                       0000107P0000054
110,0.,0.,1.,0.,0.,0.;                                           0000109P0000055
110,5.,0.,0.,5.,0.,20.;                                          0000111P0000056
142,0,105,115,125,3;                                             0000113P0000057
102,4,117,119,121,123;                                           0000115P0000058
110,1.,4.440892099E-15,0.,1.,6.283185307,0.;                     0000117P0000059
110,1.,6.283185307,0.,0.,6.283185307,0.;                         0000119P0000060
110,0.,6.283185307,0.,-6.975736996E-17,0.,0.;                    0000121P0000061
110,-6.975736996E-17,1.776356839E-15,0.,1.,6.217248938E-15,0.;   0000123P0000062
102,4,127,131,133,137;                                           0000125P0000063
100,0.,0.,0.,5.,0.,5.,0.;                                        0000127P0000064
124,1.,0.,-0.,25.,0.,-1.,-0.,10.,0.,0.,-1.,20.;                  0000129P0000065
110,30.,10.,20.,30.,10.,0.;                                      0000131P0000066
100,0.,0.,0.,5.,0.,5.,0.;                                        0000133P0000067
124,1.,0.,0.,25.,0.,1.,0.,10.,0.,0.,1.,0.;                       0000135P0000068
110,30.,10.,0.,30.,10.,20.;                                      0000137P0000069
144,141,1,0,143;                                                 0000139P0000070
108,0.,0.,1.,20.,0,25.,10.,20.,0.;                               0000141P0000071
142,0,141,0,145,2;                                               0000143P0000072
100,0.,0.,0.,5.,0.,5.,0.;                                        0000145P0000073
124,1.,0.,0.,25.,0.,1.,0.,10.,0.,0.,1.,20.;                      0000147P0000074
144,151,1,0,153;                                                 0000149P0000075
108,-0.,-0.,-1.,-0.,0,25.,10.,0.,0.;                             0000151P0000076
142,0,151,0,155,2;                                               0000153P0000077
100,0.,0.,0.,5.,0.,5.,0.;                                        0000155P0000078
124,1.,0.,-0.,25.,0.,-1.,-0.,10.,0.,0.,-1.,0.;                   0000157P0000079
402,3,161,197,207,0,1,361;                                       0000159P0000080
144,163,1,0,171;                                                 0000161P0000081
120,167,169,0.,6.283185307;                                      0000163P0000082
124,1.,0.,0.,40.,0.,1.110223025E-16,-1.,30.,0.,1.,               0000165P0000083
1.110223025E-16,5.;                                              0000165P0000084
110,0.,0.,1.,0.,0.,0.;                                           0000167P0000085
110,5.,0.,0.,5.,0.,20.;                                          0000169P0000086
142,0,163,173,183,3;                                             0000171P0000087
102,4,175,177,179,181;                                           0000173P0000088
110,1.,4.440892099E-15,0.,1.,6.283185307,0.;                     0000175P0000089
110,1.,6.283185307,0.,0.,6.283185307,0.;                         0000177P0000090
110,0.,6.283185307,0.,-6.975736996E-17,0.,0.;                    0000179P0000091
110,-6.975736996E-17,1.776356839E-15,0.,1.,6.217248938E-15,0.;   0000181P0000092
102,4,185,189,191,195;                                           0000183P0000093
100,0.,0.,0.,5.,0.,5.,0.;                                        0000185P0000094
124,1.,0.,0.,40.,0.,-1.110223025E-16,1.,10.,0.,-1.,              0000187P0000095
-1.110223025E-16,5.;                                             0000187P0000096
110,45.,10.,5.,45.,30.,5.;                                       0000189P0000097
100,0.,0.,0.,5.,0.,5.,0.;                                        0000191P0000098
124,1.,0.,0.,40.,0.,1.110223025E-16,-1.,30.,0.,1.,               0000193P0000099
1.110223025E-16,5.;                                              0000193P0000100
110,45.,30.,5.,45.,10.,5.;                                       0000195P0000101
144,199,1,0,201;                                                 0000197P0000102
108,0.,-1.,1.110223025E-16,-10.,0,40.,10.,5.,0.;                 0000199P0000103
142,0,199,0,203,2;                                               0000201P0000104
100,0.,0.,0.,5.,0.,5.,0.;                                        0000203P0000105
124,1.,0.,0.,40.,0.,1.110223025E-16,-1.,10.,0.,1.,               0000205P0000106
1.110223025E-16,5.;                                              0000205P0000107
144,209,1,0,211;                                                 0000207P0000108
108,-0.,1.,-1.110223025E-16,30.,0,40.,30.,5.,0.;                 0000209P0000109
142,0,209,0,213,2;                                               0000211P0000110
100,0.,0.,0.,5.,0.,5.,0.;                                        0000213P0000111
124,1.,0.,0.,40.,0.,-1.110223025E-16,1.,30.,0.,-1.,              0000215P0000112
-1.110223025E-16,5.;                                             0000215P0000113
144,219,1,0,229,0,1,357;                                         0000217P0000114
120,223,225,0.,6.283185307;                                      0000219P0000115
124,1.,0.,0.,5.,0.,1.,0.,45.,0.,0.,1.,6.;                        0000221P0000116
110,0.,0.,1.,0.,0.,0.;                                           0000223P0000117
100,0.,0.,0.,3.673940397E-16,-6.,3.673940397E-16,6.;             0000225P0000118
124,1.,0.,-0.,0.,0.,0.,-1.,0.,0.,1.,-0.,0.;                      0000227P0000119
142,0,219,231,237,3;                                             0000229P0000120
102,2,233,235;                                                   0000231P0000121
110,1.570796327,6.283185307,0.,-1.570796327,6.283185307,0.;      0000233P0000122
110,-1.570796327,1.046360549E-15,0.,1.570796327,1.743934249E-15, 0000235P0000123
0.;                                                              0000235P0000124
102,2,239,243;                                                   0000237P0000125
100,0.,0.,0.,0.,-6.,0.,6.;                                       0000239P0000126
124,1.,0.,2.449293598E-16,5.,-2.449293598E-16,0.,1.,45.,0.,-1.,  0000241P0000127
0.,6.;                                                           0000241P0000128
100,0.,0.,0.,-8.881784197E-16,-6.,1.776356839E-15,6.;            0000243P0000129
124,1.,0.,-2.449293598E-16,5.,-2.449293598E-16,0.,-1.,45.,0.,1., 0000245P0000130
0.,6.;                                                           0000245P0000131
402,6,249,265,281,297,313,329,0,1,363;                           0000247P0000132
144,251,1,0,253;                                                 0000249P0000133
108,-1.,-0.,0.,2.5,0,-2.5,37.5,14.,0.;                           0000251P0000134
142,0,251,0,255,2;                                               0000253P0000135
102,4,257,259,261,263;                                           0000255P0000136
110,-2.5,52.5,14.,-2.5,37.5,14.;                                 0000257P0000137
110,-2.5,37.5,14.,-2.5,37.5,17.;                                 0000259P0000138
110,-2.5,37.5,17.,-2.5,52.5,17.;                                 0000261P0000139
110,-2.5,52.5,17.,-2.5,52.5,14.;                                 0000263P0000140
144,267,1,0,269;                                                 0000265P0000141
108,1.,0.,-0.,12.5,0,12.5,37.5,14.,0.;                           0000267P0000142
142,0,267,0,271,2;                                               0000269P0000143
102,4,273,275,277,279;                                           0000271P0000144
110,12.5,37.5,17.,12.5,37.5,14.;                                 0000273P0000145
110,12.5,37.5,14.,12.5,52.5,14.;                                 0000275P0000146
110,12.5,52.5,14.,12.5,52.5,17.;                                 0000277P0000147
110,12.5,52.5,17.,12.5,37.5,17.;                                 0000279P0000148
144,283,1,0,285;                                                 0000281P0000149
108,0.,-1.,-0.,-37.5,0,-2.5,37.5,14.,0.;                         0000283P0000150
142,0,283,0,287,2;                                               0000285P0000151
102,4,289,291,293,295;                                           0000287P0000152
110,-2.5,37.5,17.,-2.5,37.5,14.;                                 0000289P0000153
110,-2.5,37.5,14.,12.5,37.5,14.;                                 0000291P0000154
110,12.5,37.5,14.,12.5,37.5,17.;                                 0000293P0000155
110,12.5,37.5,17.,-2.5,37.5,17.;                                 0000295P0000156
144,299,1,0,301;                                                 0000297P0000157
108,-0.,1.,0.,52.5,0,-2.5,52.5,14.,0.;                           0000299P0000158
142,0,299,0,303,2;                                               0000301P0000159
102,4,305,307,309,311;                                           0000303P0000160
110,12.5,52.5,14.,-2.5,52.5,14.;                                 0000305P0000161
110,-2.5,52.5,14.,-2.5,52.5,17.;                                 0000307P0000162
110,-2.5,52.5,17.,12.5,52.5,17.;                                 0000309P0000163
110,12.5,52.5,17.,12.5,52.5,14.;                                 0000311P0000164
144,315,1,0,317;                                                 0000313P0000165
108,-0.,-0.,-1.,-14.,0,-2.5,37.5,14.,0.;                         0000315P0000166
142,0,315,0,319,2;                                               0000317P0000167
102,4,321,323,325,327;                                           0000319P0000168
110,12.5,37.5,14.,-2.5,37.5,14.;                                 0000321P0000169
110,-2.5,37.5,14.,-2.5,52.5,14.;                                 0000323P0000170
110,-2.5,52.5,14.,12.5,52.5,14.;                                 0000325P0000171
110,12.5,52.5,14.,12.5,37.5,14.;                                 0000327P0000172
144,331,1,0,333;                                                 0000329P0000173
108,0.,0.,1.,17.,0,-2.5,37.5,17.,0.;                             0000331P0000174
142,0,331,0,335,2;                                               0000333P0000175
102,4,337,339,341,343;                                           0000335P0000176
110,-2.5,52.5,17.,-2.5,37.5,17.;                                 0000337P0000177
110,-2.5,37.5,17.,12.5,37.5,17.;                                 0000339P0000178
110,12.5,37.5,17.,12.5,52.5,17.;                                 0000341P0000179
110,12.5,52.5,17.,-2.5,52.5,17.;                                 0000343P0000180
314,85.000001272,9.999999991,9.999999991,10HFIREBRICK3;          0000345P0000181
314,100.,85.000001272,0.,4HGOLD;                                 0000347P0000182
314,14.999999781,29.99999961,89.999999819,10HROYALBLUE3;         0000349P0000183
314,9.999999991,70.000000582,19.999999868,9HLIMEGREEN;           0000351P0000184
314,29.99999961,80.000001088,89.999999819,15HMEDIUMTURQUOISE;    0000353P0000185
406,1,11H=>[0:1:1:2];                                            0000355P0000186
406,1,11H=>[0:1:1:3];                                            0000357P0000187
406,1,11H=>[0:1:1:1];                                            0000359P0000188
406,1,11H=>[0:1:1:2];                                            0000361P0000189
406,1,11H=>[0:1:1:4];                                            0000363P0000190
406,1,8Hassembly;                                                0000365P0000191
S      1G      4D    366P    191                                        T0000001
