DBRep_DrawableShape

CASCADE Topology V3, (c) Open Cascade
Locations 4
1
              1               0               0              25 
              0               1               0              10 
              0               0               1               0 
1
              1               0               0              40 
              0 1.11022302462516e-16              -1              30 
              0               1 1.11022302462516e-16               5 
1
              1               0               0               5 
              0               1               0              45 
              0               0               1               6 
1
              1               0               0            -7.5 
              0               1               0            -7.5 
              0               0               1               8 
Curve2ds 58
1 0 0 1 0 
1 0 0 1 0 
1 30 0 0 -1 
1 0 0 0 1 
1 0 -20 1 0 
1 0 0 1 0 
1 0 0 0 -1 
1 0 0 0 1 
1 0 0 1 0 
1 0 10 1 0 
1 30 0 0 -1 
1 10 0 0 1 
1 0 -20 1 0 
1 0 10 1 0 
1 0 0 0 -1 
1 10 0 0 1 
1 0 0 0 1 
1 0 0 1 0 
1 30 0 0 1 
1 0 0 1 0 
1 0 0 0 1 
1 0 20 1 0 
1 30 0 0 1 
1 0 20 1 0 
1 0 20 1 0 
2 0 0 1 0 -0 1 5
1 6.2831853071795862 -0 0 1 
1 0 -0 0 1 
1 0 0 1 0 
2 0 0 1 0 -0 1 5
1 0 1.5707963267948966 1 0 
1 6.2831853071795862 -6.2831853071795862 0 1 
1 0 -6.2831853071795862 0 1 
1 0 -1.5707963267948966 1 0 
1 0 0 1 0 
1 0 0 1 0 
1 3 0 0 -1 
1 0 0 0 1 
1 0 -15 1 0 
1 0 0 1 0 
1 0 0 0 -1 
1 0 0 0 1 
1 0 0 1 0 
1 0 15 1 0 
1 3 0 0 -1 
1 15 0 0 1 
1 0 -15 1 0 
1 0 15 1 0 
1 0 0 0 -1 
1 15 0 0 1 
1 0 0 0 1 
1 0 0 1 0 
1 3 0 0 1 
1 0 0 1 0 
1 0 0 0 1 
1 0 15 1 0 
1 3 0 0 1 
1 0 15 1 0 
Curves 28
1 0 0 0 0 0 1 
1 0 0 30 -0 1 0 
1 0 20 0 0 0 1 
1 0 0 0 -0 1 0 
1 10 0 0 0 0 1 
1 10 0 30 -0 1 0 
1 10 20 0 0 0 1 
1 10 0 0 -0 1 0 
1 0 0 0 1 0 -0 
1 0 0 30 1 0 -0 
1 0 20 0 1 0 -0 
1 0 20 30 1 0 -0 
2 0 0 20 0 0 1 1 0 -0 -0 1 0 5
1 5 -1.2246467991473533e-15 0 0 0 1 
2 0 0 0 0 0 1 1 0 -0 -0 1 0 5
2 0 0 0 -2.4492935982947064e-16 -1 0 1 -2.4492935982947064e-16 0 0 0 1 6
1 0 0 0 0 0 1 
1 0 0 3 -0 1 0 
1 0 15 0 0 0 1 
1 0 0 0 -0 1 0 
1 15 0 0 0 0 1 
1 15 0 3 -0 1 0 
1 15 15 0 0 0 1 
1 15 0 0 -0 1 0 
1 0 0 0 1 0 -0 
1 0 0 3 1 0 -0 
1 0 15 0 1 0 -0 
1 0 15 3 1 0 -0 
Polygon3D 0
PolygonOnTriangulations 0
Surfaces 16
1 0 0 0 1 0 -0 0 0 1 0 -1 0 
1 0 0 0 -0 1 0 0 0 1 1 0 -0 
1 0 0 30 0 0 1 1 0 -0 -0 1 0 
1 0 20 0 -0 1 0 0 0 1 1 0 -0 
1 0 0 0 0 0 1 1 0 -0 -0 1 0 
1 10 0 0 1 0 -0 0 0 1 0 -1 0 
2 0 0 0 0 0 1 1 0 0 0 1 0 5
1 0 0 20 0 0 1 1 0 0 0 1 0 
1 0 0 0 0 0 1 1 0 0 0 1 0 
4 0 0 0 0 0 1 1 0 0 0 1 0 6
1 0 0 0 1 0 -0 0 0 1 0 -1 0 
1 0 0 0 -0 1 0 0 0 1 1 0 -0 
1 0 0 3 0 0 1 1 0 -0 -0 1 0 
1 0 15 0 -0 1 0 0 0 1 1 0 -0 
1 0 0 0 0 0 1 1 0 -0 -0 1 0 
1 15 0 0 1 0 -0 0 0 1 0 -1 0 
Triangulations 0

TShapes 92
Ve
1e-07
0 0 30
0 0

0101101
*
Ve
1e-07
0 0 0
0 0

0101101
*
Ed
 1e-07 1 1 0
1  1 0 0 30
2  1 1 0 0 30
2  2 2 0 0 30
0

0101000
-92 0 +91 0 *
Ve
1e-07
0 20 30
0 0

0101101
*
Ed
 1e-07 1 1 0
1  2 0 0 20
2  3 1 0 0 20
2  4 3 0 0 20
0

0101000
-89 0 +92 0 *
Ve
1e-07
0 20 0
0 0

0101101
*
Ed
 1e-07 1 1 0
1  3 0 0 30
2  5 1 0 0 30
2  6 4 0 0 30
0

0101000
-89 0 +87 0 *
Ed
 1e-07 1 1 0
1  4 0 0 20
2  7 1 0 0 20
2  8 5 0 0 20
0

0101000
-87 0 +91 0 *
Wi

0101100
-90 0 -88 0 +86 0 +85 0 *
Fa
0  1e-07 1 0

0101000
+84 0 *
Ve
1e-07
10 0 30
0 0

0101101
*
Ve
1e-07
10 0 0
0 0

0101101
*
Ed
 1e-07 1 1 0
1  5 0 0 30
2  9 6 0 0 30
2  10 2 0 0 30
0

0101000
-82 0 +81 0 *
Ve
1e-07
10 20 30
0 0

0101101
*
Ed
 1e-07 1 1 0
1  6 0 0 20
2  11 6 0 0 20
2  12 3 0 0 20
0

0101000
-79 0 +82 0 *
Ve
1e-07
10 20 0
0 0

0101101
*
Ed
 1e-07 1 1 0
1  7 0 0 30
2  13 6 0 0 30
2  14 4 0 0 30
0

0101000
-79 0 +77 0 *
Ed
 1e-07 1 1 0
1  8 0 0 20
2  15 6 0 0 20
2  16 5 0 0 20
0

0101000
-77 0 +81 0 *
Wi

0101100
-80 0 -78 0 +76 0 +75 0 *
Fa
0  1e-07 6 0

0101000
+74 0 *
Ed
 1e-07 1 1 0
1  9 0 0 10
2  17 2 0 0 10
2  18 5 0 0 10
0

0101000
-81 0 +91 0 *
Ed
 1e-07 1 1 0
1  10 0 0 10
2  19 2 0 0 10
2  20 3 0 0 10
0

0101000
-82 0 +92 0 *
Wi

0101100
-72 0 -80 0 +71 0 +90 0 *
Fa
0  1e-07 2 0

0101000
+70 0 *
Ed
 1e-07 1 1 0
1  11 0 0 10
2  21 4 0 0 10
2  22 5 0 0 10
0

0101000
-77 0 +87 0 *
Ed
 1e-07 1 1 0
1  12 0 0 10
2  23 4 0 0 10
2  24 3 0 0 10
0

0101000
-79 0 +89 0 *
Wi

0101100
-68 0 -76 0 +67 0 +86 0 *
Fa
0  1e-07 4 0

0101000
+66 0 *
Wi

0101100
-85 0 -68 0 +75 0 +72 0 *
Fa
0  1e-07 5 0

0101000
+64 0 *
Wi

0101100
-88 0 -67 0 +78 0 +71 0 *
Fa
0  1e-07 3 0

0101000
+62 0 *
Sh

0101100
-83 0 +73 0 -69 0 +65 0 -63 0 +61 0 *
So

0100000
+60 0 *
Ve
1e-07
5 -1.22464679914735e-15 20
0 0

0101101
*
Ed
 1e-07 1 1 0
1  13 0 0 6.28318530717959
2  25 7 0 0 6.28318530717959
2  26 8 0 0 6.28318530717959
0

0101000
+58 0 -58 0 *
Ve
1e-07
5 -1.22464679914735e-15 0
0 0

0101101
*
Ed
 1e-07 1 1 0
1  14 0 0 20
3  27 28CN 7 0 0 20
0

0101000
-58 0 +56 0 *
Ed
 1e-07 1 1 0
1  15 0 0 6.28318530717959
2  29 7 0 0 6.28318530717959
2  30 9 0 0 6.28318530717959
0

0101000
+56 0 -56 0 *
Wi

0101100
-57 0 +55 0 +54 0 -55 0 *
Fa
0  1e-07 7 0

0101000
+53 0 *
Wi

0101100
+57 0 *
Fa
0  1e-07 8 0

0101000
+51 0 *
Wi

0101100
-54 0 *
Fa
0  1e-07 9 0

0101000
-49 0 *
Sh

0101100
+52 0 +50 0 -48 0 *
So

0100000
+47 0 *
Ve
1e-07
3.67394039744206e-16 -8.99855869597115e-32 6
0 0

0101101
*
Ed
 1e-07 1 1 1
2  31 10 0 0 6.28318530717959
0

0101000
+45 0 -45 0 *
Ve
1e-07
3.67394039744206e-16 -8.99855869597115e-32 -6
0 0

0101101
*
Ed
 1e-07 1 1 0
1  16 0 4.71238898038469 7.85398163397448
3  32 33CN 10 0 4.71238898038469 7.85398163397448
0

0101000
-45 0 +43 0 *
Ed
 1e-07 1 1 1
2  34 10 0 0 6.28318530717959
0

0101000
+43 0 -43 0 *
Wi

0101100
-44 0 +42 0 +41 0 -42 0 *
Fa
0  1e-07 10 0

0101000
+40 0 *
Sh

0101100
+39 0 *
So

0100000
+38 0 *
Ve
1e-07
0 0 3
0 0

0101101
*
Ve
1e-07
0 0 0
0 0

0101101
*
Ed
 1e-07 1 1 0
1  17 0 0 3
2  35 11 0 0 3
2  36 12 0 0 3
0

0101000
-36 0 +35 0 *
Ve
1e-07
0 15 3
0 0

0101101
*
Ed
 1e-07 1 1 0
1  18 0 0 15
2  37 11 0 0 15
2  38 13 0 0 15
0

0101000
-33 0 +36 0 *
Ve
1e-07
0 15 0
0 0

0101101
*
Ed
 1e-07 1 1 0
1  19 0 0 3
2  39 11 0 0 3
2  40 14 0 0 3
0

0101000
-33 0 +31 0 *
Ed
 1e-07 1 1 0
1  20 0 0 15
2  41 11 0 0 15
2  42 15 0 0 15
0

0101000
-31 0 +35 0 *
Wi

0101100
-34 0 -32 0 +30 0 +29 0 *
Fa
0  1e-07 11 0

0101000
+28 0 *
Ve
1e-07
15 0 3
0 0

0101101
*
Ve
1e-07
15 0 0
0 0

0101101
*
Ed
 1e-07 1 1 0
1  21 0 0 3
2  43 16 0 0 3
2  44 12 0 0 3
0

0101000
-26 0 +25 0 *
Ve
1e-07
15 15 3
0 0

0101101
*
Ed
 1e-07 1 1 0
1  22 0 0 15
2  45 16 0 0 15
2  46 13 0 0 15
0

0101000
-23 0 +26 0 *
Ve
1e-07
15 15 0
0 0

0101101
*
Ed
 1e-07 1 1 0
1  23 0 0 3
2  47 16 0 0 3
2  48 14 0 0 3
0

0101000
-23 0 +21 0 *
Ed
 1e-07 1 1 0
1  24 0 0 15
2  49 16 0 0 15
2  50 15 0 0 15
0

0101000
-21 0 +25 0 *
Wi

0101100
-24 0 -22 0 +20 0 +19 0 *
Fa
0  1e-07 16 0

0101000
+18 0 *
Ed
 1e-07 1 1 0
1  25 0 0 15
2  51 12 0 0 15
2  52 15 0 0 15
0

0101000
-25 0 +35 0 *
Ed
 1e-07 1 1 0
1  26 0 0 15
2  53 12 0 0 15
2  54 13 0 0 15
0

0101000
-26 0 +36 0 *
Wi

0101100
-16 0 -24 0 +15 0 +34 0 *
Fa
0  1e-07 12 0

0101000
+14 0 *
Ed
 1e-07 1 1 0
1  27 0 0 15
2  55 14 0 0 15
2  56 15 0 0 15
0

0101000
-21 0 +31 0 *
Ed
 1e-07 1 1 0
1  28 0 0 15
2  57 14 0 0 15
2  58 13 0 0 15
0

0101000
-23 0 +33 0 *
Wi

0101100
-12 0 -20 0 +11 0 +30 0 *
Fa
0  1e-07 14 0

0101000
+10 0 *
Wi

0101100
-29 0 -12 0 +19 0 +16 0 *
Fa
0  1e-07 15 0

0101000
+8 0 *
Wi

0101100
-32 0 -11 0 +22 0 +15 0 *
Fa
0  1e-07 13 0

0101000
+6 0 *
Sh

0101100
-27 0 +17 0 -13 0 +9 0 -7 0 +5 0 *
So

0100000
+4 0 *
Co

0100000
+37 0 +3 4 *
Co

1100000
+59 0 +46 1 +46 2 +2 3 *

+1 0 