{
 "asset": {
  "version": "2.0",
  "generator": "make_mesh_models.py"
 },
 "scene": 0,
 "scenes": [
  {
   "nodes": [
    0
   ]
  }
 ],
 "nodes": [
  {
   "name": "box",
   "mesh": 0
  }
 ],
 "meshes": [
  {
   "name": "box",
   "primitives": [
    {
     "attributes": {
      "POSITION": 0,
      "NORMAL": 1
     },
     "indices": 2,
     "material": 0
    }
   ]
  }
 ],
 "materials": [
  {
   "name": "red",
   "pbrMetallicRoughness": {
    "baseColorFactor": [
     0.7,
     0.05,
     0.05,
     1
    ],
    "metallicFactor": 0,
    "roughnessFactor": 0.5
   }
  }
 ],
 "accessors": [
  {
   "bufferView": 0,
   "componentType": 5126,
   "count": 24,
   "type": "VEC3",
   "min": [
    0.0,
    0.0,
    -0.02
   ],
   "max": [
    0.01,
    0.03,
    0.0
   ]
  },
  {
   "bufferView": 1,
   "componentType": 5126,
   "count": 24,
   "type": "VEC3"
  },
  {
   "bufferView": 2,
   "componentType": 5125,
   "count": 36,
   "type": "SCALAR"
  }
 ],
 "bufferViews": [
  {
   "buffer": 0,
   "byteOffset": 0,
   "byteLength": 288,
   "target": 34962
  },
  {
   "buffer": 0,
   "byteOffset": 288,
   "byteLength": 288,
   "target": 34962
  },
  {
   "buffer": 0,
   "byteOffset": 576,
   "byteLength": 144,
   "target": 34963
  }
 ],
 "buffers": [
  {
   "byteLength": 720,
   "uri": "box.bin"
  }
 ]
}